# Blender 4.1.1
# www.blender.org
mtllib roof.mtl
o Cylinder
v 0.000000 1.500000 -5.000000
v 0.000000 1.500000 5.000000
v 4.330127 0.000000 -5.000000
v 4.330127 -0.000000 5.000000
v -4.330127 0.000000 -5.000000
v -4.330127 -0.000000 5.000000
vn 0.3273 0.9449 -0.0000
vn -0.0000 -1.0000 -0.0000
vn -0.0000 -0.0000 1.0000
vn -0.3273 0.9449 -0.0000
vn -0.0000 -0.0000 -1.0000
vt 1.000000 0.500000
vt 1.000000 1.000000
vt 0.666667 1.000000
vt 0.666667 0.500000
vt 0.333333 1.000000
vt 0.333333 0.500000
vt 0.995764 0.130000
vt 0.498031 0.276073
vt 0.023552 0.128450
vt -0.000000 1.000000
vt -0.000000 0.500000
vt 0.497318 0.240418
vt 0.998151 0.103647
vt 0.015087 0.103647
s 0
usemtl Material.001
f 1/1/1 2/2/1 4/3/1 3/4/1
f 3/4/2 4/3/2 6/5/2 5/6/2
f 4/7/3 2/8/3 6/9/3
f 5/6/4 6/5/4 2/10/4 1/11/4
f 1/12/5 3/13/5 5/14/5
